<svg width="512" height="512" viewBox="0 0 512 512" fill="none" xmlns="http://www.w3.org/2000/svg">
    <defs>
        <linearGradient id="fluencyGradient" x1="0" y1="0" x2="512" y2="512" gradientUnits="userSpaceOnUse">
            <stop offset="0%" stop-color="#4F46E5" /> <stop offset="100%" stop-color="#7C3AED" /> </linearGradient>
        <filter id="dropShadow" x="-20" y="-20" width="600" height="600">
            <feDropShadow dx="0" dy="4" stdDeviation="8" flood-opacity="0.25"/>
        </filter>
    </defs>

    <rect x="32" y="32" width="448" height="448" rx="120" fill="url(#fluencyGradient)" filter="url(#dropShadow)" />

    <g transform="translate(136, 136) scale(0.47)">
        <rect x="176" y="32" width="160" height="288" rx="80" fill="white" />
        <path d="M256 432V480M144 480H368" stroke="white" stroke-width="48" stroke-linecap="round" />
        <path d="M128 224V240C128 310.7 185.3 368 256 368C326.7 368 384 310.7 384 240V224" stroke="white" stroke-width="48" stroke-linecap="round" />
    </g>

    <path d="M400 60 L415 95 L450 110 L415 125 L400 160 L385 125 L350 110 L385 95 Z" fill="#F97316" />
</svg>
